<svg width="2000" height="2000" viewBox="0 0 2000 2000" fill="none" xmlns="http://www.w3.org/2000/svg">
<g clip-path="url(#clip0_8_8)">
<g clip-path="url(#clip1_8_8)">
<path d="M850 0C836.739 0 824.021 5.26784 814.645 14.6447C805.268 24.0215 800 36.7392 800 50V235.66C730.277 254.009 663.41 281.863 601.28 318.44L469.68 186.84C465.037 182.193 459.523 178.506 453.454 175.991C447.385 173.475 440.88 172.181 434.31 172.181C427.74 172.181 421.235 173.475 415.166 175.991C409.097 178.506 403.583 182.193 398.94 186.84L186.84 398.94C182.193 403.583 178.506 409.097 175.991 415.166C173.475 421.235 172.181 427.74 172.181 434.31C172.181 440.88 173.475 447.385 175.991 453.454C178.506 459.523 182.193 465.037 186.84 469.68L318.48 601.32C281.921 663.44 254.08 730.293 235.74 800H50C36.7392 800 24.0215 805.268 14.6447 814.645C5.26784 824.021 0 836.739 0 850L0 1150C0 1163.26 5.26784 1175.98 14.6447 1185.36C24.0215 1194.73 36.7392 1200 50 1200H235.74C254.08 1269.71 281.921 1336.56 318.48 1398.68L186.84 1530.32C182.193 1534.96 178.506 1540.48 175.991 1546.55C173.475 1552.62 172.181 1559.12 172.181 1565.69C172.181 1572.26 173.475 1578.76 175.991 1584.83C178.506 1590.9 182.193 1596.42 186.84 1601.06L398.94 1813.16C403.583 1817.81 409.097 1821.49 415.166 1824.01C421.235 1826.52 427.74 1827.82 434.31 1827.82C440.88 1827.82 447.385 1826.52 453.454 1824.01C459.523 1821.49 465.037 1817.81 469.68 1813.16L601.28 1681.56C663.428 1718.02 730.294 1745.76 800 1764V1950C800 1963.26 805.268 1975.98 814.645 1985.36C824.021 1994.73 836.739 2000 850 2000H1150C1163.26 2000 1175.98 1994.73 1185.36 1985.36C1194.73 1975.98 1200 1963.26 1200 1950V1764.26C1269.68 1745.93 1336.49 1718.03 1398.52 1681.36L1530.32 1813.16C1549.84 1832.68 1581.52 1832.68 1601.06 1813.16L1813.16 1601.06C1817.81 1596.42 1821.49 1590.9 1824.01 1584.83C1826.52 1578.76 1827.82 1572.26 1827.82 1565.69C1827.82 1559.12 1826.52 1552.62 1824.01 1546.55C1821.49 1540.48 1817.81 1534.96 1813.16 1530.32L1680.76 1397.9C1717.02 1335.98 1744.64 1269.4 1762.88 1200H1950C1963.26 1200 1975.98 1194.73 1985.36 1185.36C1994.73 1175.98 2000 1163.26 2000 1150V850C2000 836.739 1994.73 824.021 1985.36 814.645C1975.98 805.268 1963.26 800 1950 800H1762.9C1744.67 730.595 1717.04 664.006 1680.78 602.08L1813.18 469.68C1817.83 465.037 1821.51 459.523 1824.03 453.454C1826.54 447.385 1827.84 440.88 1827.84 434.31C1827.84 427.74 1826.54 421.235 1824.03 415.166C1821.51 409.097 1817.83 403.583 1813.18 398.94L1601.04 186.84C1596.4 182.194 1590.89 178.508 1584.82 175.992C1578.75 173.477 1572.25 172.181 1565.68 172.18C1559.11 172.176 1552.59 173.469 1546.52 175.985C1540.45 178.5 1534.93 182.189 1530.28 186.84L1398.48 318.64C1336.42 282.144 1269.64 254.37 1200 236.1V50C1200 36.7392 1194.73 24.0215 1185.36 14.6447C1175.98 5.26784 1163.26 0 1150 0L850 0ZM1000 350C1359.8 350 1650 640.2 1650 1000C1650 1359.8 1359.8 1650 1000 1650C640.2 1650 350 1359.8 350 1000C350 640.2 640.2 350 1000 350Z" fill="white"/>
</g>
<path d="M700.839 626.049H1299.16C1319 626.049 1338.02 633.928 1352.05 647.954C1366.07 661.98 1373.95 681.003 1373.95 700.839V1299.16C1373.95 1319 1366.07 1338.02 1352.05 1352.05C1338.02 1366.07 1319 1373.95 1299.16 1373.95H700.839C681.003 1373.95 661.98 1366.07 647.954 1352.05C633.928 1338.02 626.048 1319 626.048 1299.16V700.839C626.048 681.003 633.928 661.98 647.954 647.954C661.98 633.928 681.003 626.049 700.839 626.049ZM775.629 775.629V925.21H925.209V1000H850.419V1224.37H925.209V1149.58H1074.79V1224.37H1149.58V1000H1074.79V925.21H1224.37V775.629H1074.79V925.21H925.209V775.629H775.629Z" fill="white"/>
</g>
<defs>
<clipPath id="clip0_8_8">
<rect width="2000" height="2000" fill="white"/>
</clipPath>
<clipPath id="clip1_8_8">
<rect width="2000" height="2000" fill="white"/>
</clipPath>
</defs>
</svg>
