<svg width="663" height="538" viewBox="0 0 663 538" fill="none" xmlns="http://www.w3.org/2000/svg">
<path d="M533.116 27.625H266.375C261.127 27.6186 255.985 29.0382 251.552 31.7176C247.119 34.397 243.577 38.2254 241.342 42.7549L85.5075 359.06C83.5234 363.08 82.6367 367.513 82.9298 371.947C83.2228 376.382 84.6862 380.673 87.1839 384.424C89.6816 388.174 93.1325 391.261 97.216 393.398C101.299 395.535 105.883 396.653 110.54 396.647H276.432L233.826 559.808C223.603 598.924 275.437 624.808 303.344 594.443L569.865 304.075C575.109 298.36 578.516 291.326 579.68 283.812C580.844 276.299 579.714 268.624 576.427 261.707C573.139 254.789 567.833 248.922 561.142 244.805C554.451 240.689 546.659 238.498 538.698 238.495H456.084L557.21 66.8995C559.574 62.888 560.795 58.356 560.753 53.7544C560.711 49.1527 559.407 44.6418 556.971 40.6701C554.534 36.6984 551.05 33.4045 546.865 31.1159C542.68 28.8273 537.94 27.6237 533.116 27.625Z" fill="#BF7F40"/>
</svg>
